<svg width="33" height="35" viewBox="0 0 33 35" fill="none" xmlns="http://www.w3.org/2000/svg">
<path fill-rule="evenodd" clip-rule="evenodd" d="M16.4992 29.0321C10.1755 25.2122 6.64853 21.4154 4.94303 18.1211C3.19745 14.7495 3.34975 11.9097 4.31838 9.89421C6.30934 5.75148 11.971 4.42676 15.4206 9.05403L16.4991 10.5008L17.5777 9.0541C21.0279 4.42664 26.6899 5.75158 28.6808 9.89421C29.6494 11.9097 29.8017 14.7494 28.056 18.1211C26.3503 21.4154 22.8232 25.2122 16.4992 29.0321ZM16.4992 5.98849C11.6466 1.0978 4.4878 3.11911 1.8683 8.56967C0.430681 11.561 0.411043 15.4272 2.53252 19.525C4.63517 23.5863 8.82741 27.8732 15.834 31.9806L16.4992 32.3705L17.1643 31.9806C24.1712 27.8732 28.3636 23.5863 30.4664 19.525C32.588 15.4273 32.5685 11.561 31.1309 8.56967C28.5113 3.11901 21.3523 1.09788 16.4992 5.98849Z" fill="#17696A"/>
</svg>
