<svg width="16" height="16" viewBox="0 0 16 16" fill="none" xmlns="http://www.w3.org/2000/svg">
<path fill-rule="evenodd" clip-rule="evenodd" d="M7.99962 13.2719C4.93358 11.5256 3.22354 9.78992 2.39663 8.28398C1.55029 6.74265 1.62413 5.44446 2.09377 4.5231C3.05908 2.62928 5.80415 2.02369 7.47666 4.13902L7.99958 4.80038L8.52254 4.13905C10.1953 2.02364 12.9406 2.62932 13.9058 4.5231C14.3755 5.44445 14.4493 6.74263 13.6029 8.28396C12.7759 9.78991 11.0658 11.5256 7.99962 13.2719ZM7.99964 2.73763C5.64684 0.501885 2.17591 1.42591 0.905854 3.9176C0.208826 5.28507 0.199305 7.05249 1.2279 8.92572C2.24736 10.7823 4.27997 12.7421 7.67712 14.6197L7.99961 14.798L8.3221 14.6197C11.7194 12.7421 13.7521 10.7824 14.7716 8.92574C15.8003 7.05251 15.7908 5.28508 15.0938 3.9176C13.8237 1.42586 10.3527 0.501918 7.99964 2.73763Z" fill="#17696A"/>
</svg>
