<svg width="86" height="48" viewBox="0 0 86 48" fill="none" xmlns="http://www.w3.org/2000/svg">
<ellipse cx="60.8438" cy="23.9242" rx="24.3375" ry="23.9242" fill="#03CEA4"/>
<path fill-rule="evenodd" clip-rule="evenodd" d="M63.676 18.7336C64.072 18.3443 64.7141 18.3443 65.1101 18.7336L69.6734 23.2193C70.0694 23.6086 70.0694 24.2398 69.6734 24.6291L65.1101 29.1149C64.7141 29.5042 64.072 29.5042 63.676 29.1149C63.28 28.7256 63.28 28.0944 63.676 27.7051L66.5082 24.9211H52.7313C52.1713 24.9211 51.7173 24.4748 51.7173 23.9242C51.7173 23.3737 52.1713 22.9274 52.7313 22.9274H66.5082L63.676 20.1433C63.28 19.754 63.28 19.1228 63.676 18.7336Z" fill="white"/>
<path fill-rule="evenodd" clip-rule="evenodd" d="M9.33668 29.1149C8.94066 29.5042 8.29859 29.5042 7.90258 29.1149L3.3393 24.6291C2.94328 24.2398 2.94328 23.6086 3.3393 23.2194L7.90258 18.7336C8.29859 18.3443 8.94066 18.3443 9.33668 18.7336C9.7327 19.1229 9.7327 19.754 9.33668 20.1433L6.50451 22.9274H20.2813C20.8414 22.9274 21.2954 23.3737 21.2954 23.9242C21.2954 24.4748 20.8414 24.9211 20.2813 24.9211H6.50451L9.33668 27.7051C9.7327 28.0944 9.7327 28.7256 9.33668 29.1149Z" fill="white"/>
</svg>
