<svg width="87" height="49" viewBox="0 0 87 49" fill="none" xmlns="http://www.w3.org/2000/svg">
<ellipse cx="61.6922" cy="24.7379" rx="24.3375" ry="23.9242" fill="#03CEA4"/>
<path fill-rule="evenodd" clip-rule="evenodd" d="M64.5244 19.5472C64.9204 19.1579 65.5625 19.1579 65.9585 19.5472L70.5218 24.033C70.9178 24.4223 70.9178 25.0535 70.5218 25.4428L65.9585 29.9285C65.5625 30.3178 64.9204 30.3178 64.5244 29.9285C64.1284 29.5393 64.1284 28.9081 64.5244 28.5188L67.3566 25.7347H53.5797C53.0197 25.7347 52.5657 25.2884 52.5657 24.7379C52.5657 24.1873 53.0197 23.741 53.5797 23.741H67.3566L64.5244 20.957C64.1284 20.5677 64.1284 19.9365 64.5244 19.5472Z" fill="white"/>
<path fill-rule="evenodd" clip-rule="evenodd" d="M10.1851 29.9286C9.78905 30.3178 9.14698 30.3178 8.75097 29.9286L4.18768 25.4428C3.79167 25.0535 3.79167 24.4223 4.18768 24.033L8.75097 19.5472C9.14698 19.1579 9.78905 19.1579 10.1851 19.5472C10.5811 19.9365 10.5811 20.5677 10.1851 20.957L7.3529 23.741H21.1297C21.6898 23.741 22.1438 24.1873 22.1438 24.7379C22.1438 25.2884 21.6898 25.7347 21.1297 25.7347H7.3529L10.1851 28.5188C10.5811 28.9081 10.5811 29.5393 10.1851 29.9286Z" fill="white"/>
</svg>
