<svg width="32" height="32" viewBox="0 0 32 32" fill="none" xmlns="http://www.w3.org/2000/svg">
<circle cx="16" cy="16" r="16" fill="white"/>
<path fill-rule="evenodd" clip-rule="evenodd" d="M15.9995 21.2718C12.9335 19.5255 11.2234 17.7899 10.3965 16.2839C9.55017 14.7426 9.62401 13.4444 10.0936 12.523C11.059 10.6292 13.804 10.0236 15.4765 12.139L15.9995 12.8003L16.5224 12.139C18.1952 10.0236 20.9404 10.6293 21.9057 12.523C22.3754 13.4444 22.4492 14.7426 21.6028 16.2839C20.7758 17.7898 19.0657 19.5255 15.9995 21.2718ZM15.9995 10.7376C13.6467 8.50182 10.1758 9.42585 8.90573 11.9175C8.2087 13.285 8.19918 15.0524 9.22778 16.9257C10.2472 18.7823 12.2798 20.742 15.677 22.6197L15.9995 22.7979L16.322 22.6197C19.7193 20.742 21.752 18.7823 22.7715 16.9257C23.8002 15.0524 23.7907 13.285 23.0936 11.9175C21.8236 9.4258 18.3525 8.50186 15.9995 10.7376Z" fill="#787A80"/>
</svg>
