<svg width="32" height="32" viewBox="0 0 32 32" fill="none" xmlns="http://www.w3.org/2000/svg">
<circle cx="16" cy="16" r="16" fill="white"/>
<path fill-rule="evenodd" clip-rule="evenodd" d="M15.9997 21.2718C12.9337 19.5255 11.2237 17.7899 10.3968 16.2839C9.55041 14.7426 9.62425 13.4444 10.0939 12.523C11.0592 10.6292 13.8043 10.0236 15.4768 12.139L15.9997 12.8003L16.5227 12.139C18.1955 10.0236 20.9407 10.6293 21.906 12.523C22.3756 13.4444 22.4494 14.7426 21.603 16.2839C20.776 17.7898 19.0659 19.5255 15.9997 21.2718ZM15.9998 10.7376C13.647 8.50182 10.176 9.42585 8.90598 11.9175C8.20895 13.285 8.19943 15.0524 9.22802 16.9257C10.2475 18.7823 12.2801 20.742 15.6772 22.6197L15.9997 22.7979L16.3222 22.6197C19.7195 20.742 21.7522 18.7823 22.7717 16.9257C23.8004 15.0524 23.7909 13.285 23.0939 11.9175C21.8238 9.4258 18.3528 8.50186 15.9998 10.7376Z" fill="#787A80"/>
</svg>
