<svg width="32" height="32" viewBox="0 0 32 32" fill="none" xmlns="http://www.w3.org/2000/svg">
<circle cx="16" cy="16" r="16" fill="white"/>
<path fill-rule="evenodd" clip-rule="evenodd" d="M15.9996 21.2718C12.9336 19.5255 11.2235 17.7899 10.3966 16.2839C9.55029 14.7426 9.62413 13.4444 10.0938 12.523C11.0591 10.6292 13.8042 10.0236 15.4767 12.139L15.9996 12.8003L16.5225 12.139C18.1953 10.0236 20.9406 10.6293 21.9058 12.523C22.3755 13.4444 22.4493 14.7426 21.6029 16.2839C20.7759 17.7898 19.0658 19.5255 15.9996 21.2718ZM15.9996 10.7376C13.6468 8.50182 10.1759 9.42585 8.90585 11.9175C8.20883 13.285 8.1993 15.0524 9.2279 16.9257C10.2474 18.7823 12.28 20.742 15.6771 22.6197L15.9996 22.7979L16.3221 22.6197C19.7194 20.742 21.7521 18.7823 22.7716 16.9257C23.8003 15.0524 23.7908 13.285 23.0938 11.9175C21.8237 9.4258 18.3527 8.50186 15.9996 10.7376Z" fill="#787A80"/>
</svg>
